# Blender 4.5.1 LTS
# www.blender.org
mtllib bedframe.mtl
o Cube.001
v 4.048067 0.370006 -1.346648
v 4.048067 0.293124 -1.346648
v 4.048067 0.370006 -2.630089
v 4.048067 0.293124 -2.630089
v 1.517110 0.370006 -1.346648
v 1.517110 0.293124 -1.346648
v 1.517110 0.370006 -2.630089
v 1.517110 0.293124 -2.630089
v 1.517110 0.293124 -1.346648
v 4.048067 0.370006 -1.346648
v 1.517110 0.370006 -1.346648
v 4.048067 0.293124 -1.346648
v 1.517110 0.293124 -2.597780
v 4.048067 0.370006 -2.597780
v 1.517110 0.370006 -2.597780
v 4.048067 0.293124 -2.597780
v 1.517110 0.370006 -1.381732
v 4.048067 0.293124 -1.381732
v 1.517110 0.293124 -1.381732
v 4.048067 0.370006 -1.381732
v 3.997319 0.293124 -1.346648
v 3.997319 0.370006 -2.630089
v 3.997319 0.293124 -2.630089
v 3.997319 0.370006 -1.346648
v 3.997319 0.293124 -1.346648
v 3.997319 0.370006 -1.346648
v 3.997319 0.293124 -2.597780
v 3.997319 0.370006 -2.597780
v 3.997319 0.370006 -1.381732
v 3.997319 0.293124 -1.381732
v 1.559434 0.293124 -1.346648
v 1.559434 0.370006 -2.630089
v 1.559434 0.293124 -1.346648
v 1.559434 0.293124 -2.597780
v 1.559434 0.293124 -1.381732
v 1.559434 0.293124 -2.630089
v 1.559434 0.370006 -1.346648
v 1.559434 0.370006 -1.346648
v 1.559434 0.370006 -2.597780
v 1.559434 0.370006 -1.381732
v 1.517110 0.199393 -2.597780
v 1.517110 0.199393 -2.630089
v 3.997319 0.199393 -2.630089
v 4.048067 0.199393 -2.630089
v 4.048067 0.199393 -1.381732
v 4.048067 0.199393 -1.346648
v 1.559434 0.199393 -1.346648
v 1.517110 0.199393 -1.346648
v 4.048067 0.199393 -2.597780
v 1.559434 0.199393 -2.597780
v 1.517110 0.199393 -1.381732
v 1.559434 0.199393 -1.381732
v 3.997319 0.199393 -1.346648
v 3.997319 0.199393 -2.597780
v 3.997319 0.199393 -1.381732
v 1.559434 0.199393 -2.630089
v 4.048067 0.369662 -1.349518
v 4.048067 0.292780 -1.349518
v 4.040761 0.369784 -2.626384
v 4.039119 0.293124 -2.625551
v 1.517110 0.369662 -1.349518
v 1.517110 0.292780 -1.349518
v 1.524416 0.369784 -2.626384
v 1.526058 0.293124 -2.625551
v 1.525546 0.292868 -1.348787
v 4.044065 0.369642 -1.346648
v 1.521111 0.369642 -1.346648
v 4.039631 0.292868 -1.348787
v 1.528556 0.293240 -2.599715
v 4.039119 0.369734 -2.597780
v 1.526058 0.369734 -2.597780
v 4.036621 0.293240 -2.599715
v 1.526058 0.369734 -1.381732
v 4.036621 0.293240 -1.379797
v 1.528556 0.293240 -1.379797
v 4.039119 0.369734 -1.381732
v 3.997319 0.292852 -1.351186
v 3.997319 0.369734 -2.625551
v 4.001134 0.293240 -2.624284
v 3.997319 0.369734 -1.351186
v 4.004625 0.292902 -1.350353
v 3.997319 0.369622 -1.346648
v 4.001134 0.293472 -2.599715
v 3.997319 0.369622 -2.597780
v 3.997319 0.369622 -1.381732
v 4.001134 0.293472 -1.379797
v 1.559434 0.292852 -1.351186
v 1.559434 0.369734 -2.625551
v 1.552128 0.292902 -1.350353
v 1.555619 0.293472 -2.599715
v 1.555619 0.293472 -1.379797
v 1.555619 0.293240 -2.624284
v 1.559434 0.369734 -1.351186
v 1.559434 0.369622 -1.346648
v 1.559434 0.369622 -2.597780
v 1.559434 0.369622 -1.381732
v 1.524416 0.199615 -2.601485
v 1.524416 0.199615 -2.626384
v 4.004625 0.199615 -2.626384
v 4.040761 0.199615 -2.626384
v 4.040761 0.199615 -1.378027
v 4.040761 0.199615 -1.350353
v 1.552128 0.199615 -1.350353
v 1.524416 0.199615 -1.350353
v 4.040761 0.199615 -2.601485
v 1.552128 0.199615 -2.601485
v 1.524416 0.199615 -1.378027
v 1.552128 0.199615 -1.378027
v 4.004625 0.199615 -1.350353
v 4.004625 0.199615 -2.601485
v 4.004625 0.199615 -1.378027
v 1.552128 0.199615 -2.626384
vn -0.0000 1.0000 -0.0000
vn -0.0000 -0.0000 -1.0000
vn -1.0000 -0.0000 -0.0000
vn 1.0000 -0.0000 -0.0000
vn -0.0000 -0.0000 1.0000
vn -0.0000 -1.0000 -0.0000
vn -0.0023 -1.0000 -0.0028
vn -0.0325 0.0142 0.9994
vn -0.2779 -0.0214 0.9604
vn 0.9983 -0.0281 0.0510
vn -0.9967 0.0275 -0.0758
vn 0.0328 -0.0000 -0.9995
vn 0.2779 -0.0214 0.9604
vn -0.0044 -0.9964 0.0844
vn 0.9918 0.0447 0.1197
vn -0.0003 0.9998 0.0182
vn 0.9967 0.0275 -0.0758
vn -0.9995 0.0326 -0.0000
vn 0.0065 1.0000 -0.0000
vn -0.0034 -1.0000 -0.0000
vn -0.0018 -1.0000 -0.0015
vn -0.9983 -0.0281 0.0510
vn -0.9918 0.0447 0.1197
vn 0.9995 0.0326 -0.0000
vn -0.0000 0.9998 0.0193
vn 0.0015 -1.0000 -0.0014
vn 0.0027 -1.0000 -0.0000
vn 0.0002 0.9998 0.0181
vn -0.0000 -0.9982 0.0598
vn -0.0000 1.0000 -0.0094
vn 0.0258 0.0141 0.9996
vn 0.0019 -1.0000 -0.0028
vn 0.9983 -0.0302 -0.0491
vn -0.0394 -0.0000 -0.9992
vn 0.0055 -0.9965 0.0836
vn -0.0086 1.0000 -0.0000
vn -0.9993 0.0372 -0.0002
vn -0.0000 0.9997 0.0248
vn -0.0000 0.0166 0.9999
vn -0.0000 -1.0000 -0.0041
vn 0.0171 -0.0152 0.9997
vn 0.0001 0.0189 0.9998
vn -0.9983 -0.0302 -0.0491
vn 0.9993 0.0372 -0.0002
vn 0.9980 0.0180 -0.0608
vn -0.0221 -0.0151 0.9996
vn -0.0288 0.0086 -0.9995
vn 0.0220 0.0085 -0.9997
vn -0.9980 0.0180 -0.0608
vn -0.0001 0.0189 0.9998
vn -0.0001 0.0189 -0.9998
vn 0.0001 0.0189 -0.9998
vt 0.870819 0.743707
vt 0.875000 0.743707
vt 0.875000 0.750000
vt 0.870819 0.750000
vt 0.375000 0.995819
vt 0.625000 0.995819
vt 0.625000 1.000000
vt 0.375000 1.000000
vt 0.375000 0.250000
vt 0.625000 0.250000
vt 0.375000 0.243166
vt 0.375000 0.743707
vt 0.625000 0.743707
vt 0.625000 0.750000
vt 0.375000 0.750000
vt 0.375000 0.494987
vt 0.625000 0.494987
vt 0.625000 0.500000
vt 0.375000 0.500000
vt 0.625000 0.243166
vt 0.625000 0.254181
vt 0.625000 0.254181
vt 0.375000 0.000000
vt 0.625000 0.000000
vt 0.625000 0.006293
vt 0.375000 0.006293
vt 0.375000 0.506834
vt 0.625000 0.506834
vt 0.369987 0.506834
vt 0.369987 0.743707
vt 0.870819 0.506834
vt 0.875000 0.506834
vt 0.870819 0.500000
vt 0.875000 0.500000
vt 0.129181 0.500000
vt 0.369987 0.500000
vt 0.129181 0.506834
vt 0.630013 0.500000
vt 0.630013 0.506834
vt 0.630013 0.743707
vt 0.129181 0.743707
vt 0.375000 0.254181
vt 0.375000 0.254181
vt 0.369987 0.750000
vt 0.129181 0.750000
vt 0.625000 0.755013
vt 0.375000 0.755013
vt 0.630013 0.750000
vt 0.125000 0.506834
vt 0.125000 0.743707
vt 0.125000 0.750000
vt 0.125000 0.500000
s 0
usemtl Material.004
f 39/1/1 32/4/1 7/3/1 15/2/1
f 36/5/2 8/8/2 7/7/2 32/6/2
f 9/9/1 6/9/1 5/10/1 11/10/1
f 19/11/3 51/11/3 48/9/3 9/9/3
f 16/12/4 4/15/4 3/14/4 14/13/4
f 21/16/5 2/19/5 1/18/5 24/17/5
f 2/19/1 12/19/1 10/18/1 1/18/1
f 21/16/1 25/16/1 12/19/1 2/19/1
f 19/11/3 9/9/3 11/10/3 17/20/3
f 37/21/1 38/22/1 11/10/1 5/10/1
f 8/23/3 13/26/3 15/25/3 7/24/3
f 18/27/4 16/12/4 14/13/4 20/28/4
f 30/29/6 27/30/6 16/12/6 18/27/6
f 40/31/1 39/1/1 15/2/1 17/32/1
f 38/33/1 40/31/1 17/32/1 11/34/1
f 12/19/4 46/19/4 45/27/4 18/27/4
f 12/19/4 18/27/4 20/28/4 10/18/4
f 13/26/3 19/11/3 17/20/3 15/25/3
f 33/35/6 35/37/6 30/29/6 25/36/6
f 10/18/1 20/28/1 29/39/1 26/38/1
f 20/28/1 14/13/1 28/40/1 29/39/1
f 35/37/6 34/41/6 27/30/6 30/29/6
f 1/18/1 10/18/1 26/17/1 24/17/1
f 31/42/1 33/43/1 25/16/1 21/16/1
f 31/42/5 21/16/5 24/17/5 37/21/5
f 34/41/6 36/45/6 23/44/6 27/30/6
f 4/15/2 23/47/2 22/46/2 3/14/2
f 14/13/1 3/14/1 22/48/1 28/40/1
f 8/23/3 42/23/3 41/26/3 13/26/3
f 6/9/5 31/42/5 37/21/5 5/10/5
f 6/9/1 9/9/1 33/43/1 31/42/1
f 19/49/6 13/50/6 34/41/6 35/37/6
f 34/41/4 50/41/4 56/45/4 36/45/4
f 26/38/1 29/39/1 40/31/1 38/33/1
f 29/39/1 28/40/1 39/1/1 40/31/1
f 24/17/1 26/17/1 38/22/1 37/21/1
f 23/47/2 36/5/2 32/6/2 22/46/2
f 28/40/1 22/48/1 32/4/1 39/1/1
f 54/30/6 43/44/6 44/15/6 49/12/6
f 53/36/6 55/29/6 45/27/6 46/19/6
f 41/50/6 42/51/6 56/45/6 50/41/6
f 48/52/6 51/49/6 52/37/6 47/35/6
f 4/15/2 44/15/2 43/47/2 23/47/2
f 18/27/2 45/27/2 55/29/2 30/29/2
f 16/12/4 49/12/4 44/15/4 4/15/4
f 23/44/3 43/44/3 54/30/3 27/30/3
f 30/29/3 55/29/3 53/36/3 25/36/3
f 36/5/2 56/5/2 42/8/2 8/8/2
f 9/9/5 48/9/5 47/43/5 33/43/5
f 25/16/5 53/16/5 46/19/5 12/19/5
f 33/35/4 47/35/4 52/37/4 35/37/4
f 35/37/2 52/37/2 51/49/2 19/49/2
f 13/50/5 41/50/5 50/41/5 34/41/5
f 27/30/5 54/30/5 49/12/5 16/12/5
f 95/1/7 71/2/7 63/3/7 88/4/7
f 92/5/8 88/6/8 63/7/8 64/8/8
f 65/9/9 67/10/9 61/10/9 62/9/9
f 75/11/10 65/9/10 104/9/10 107/11/10
f 72/12/11 70/13/11 59/14/11 60/15/11
f 77/16/12 80/17/12 57/18/12 58/19/12
f 58/19/13 57/18/13 66/18/13 68/19/13
f 77/16/14 58/19/14 68/19/14 81/16/14
f 75/11/15 73/20/15 67/10/15 65/9/15
f 93/21/16 61/10/16 67/10/16 94/22/16
f 64/23/17 63/24/17 71/25/17 69/26/17
f 74/27/18 76/28/18 70/13/18 72/12/18
f 86/29/19 74/27/19 72/12/19 83/30/19
f 96/31/20 73/32/20 71/2/20 95/1/20
f 94/33/21 67/34/21 73/32/21 96/31/21
f 68/19/22 74/27/22 101/27/22 102/19/22
f 68/19/23 66/18/23 76/28/23 74/27/23
f 69/26/24 71/25/24 73/20/24 75/11/24
f 89/35/25 81/36/25 86/29/25 91/37/25
f 66/18/26 82/38/26 85/39/26 76/28/26
f 76/28/27 85/39/27 84/40/27 70/13/27
f 91/37/1 86/29/1 83/30/1 90/41/1
f 57/18/28 80/17/28 82/17/28 66/18/28
f 87/42/29 77/16/29 81/16/29 89/43/29
f 87/42/2 93/21/2 80/17/2 77/16/2
f 90/41/30 83/30/30 79/44/30 92/45/30
f 60/15/31 59/14/31 78/46/31 79/47/31
f 70/13/32 84/40/32 78/48/32 59/14/32
f 64/23/33 69/26/33 97/26/33 98/23/33
f 62/9/34 61/10/34 93/21/34 87/42/34
f 62/9/35 87/42/35 89/43/35 65/9/35
f 75/49/36 91/37/36 90/41/36 69/50/36
f 90/41/37 92/45/37 112/45/37 106/41/37
f 82/38/6 94/33/6 96/31/6 85/39/6
f 85/39/6 96/31/6 95/1/6 84/40/6
f 80/17/38 93/21/38 94/22/38 82/17/38
f 79/47/39 78/46/39 88/6/39 92/5/39
f 84/40/40 95/1/40 88/4/40 78/48/40
f 110/30/1 105/12/1 100/15/1 99/44/1
f 109/36/1 102/19/1 101/27/1 111/29/1
f 97/50/1 106/41/1 112/45/1 98/51/1
f 104/52/1 103/35/1 108/37/1 107/49/1
f 60/15/41 79/47/41 99/47/41 100/15/41
f 74/27/42 86/29/42 111/29/42 101/27/42
f 72/12/43 60/15/43 100/15/43 105/12/43
f 79/44/44 83/30/44 110/30/44 99/44/44
f 86/29/45 81/36/45 109/36/45 111/29/45
f 92/5/46 64/8/46 98/8/46 112/5/46
f 65/9/47 89/43/47 103/43/47 104/9/47
f 81/16/48 68/19/48 102/19/48 109/16/48
f 89/35/49 91/37/49 108/37/49 103/35/49
f 91/37/50 75/49/50 107/49/50 108/37/50
f 69/50/51 90/41/51 106/41/51 97/50/51
f 83/30/52 72/12/52 105/12/52 110/30/52
