# Blender 4.5.1 LTS
# www.blender.org
mtllib coin.mtl
o Circle
v 0.000000 0.000000 3.039514
v 0.007384 0.000000 3.038787
v 0.014485 0.000000 3.036633
v 0.021029 0.000000 3.033135
v 0.026765 0.000000 3.028428
v 0.031472 0.000000 3.022692
v 0.034970 0.000000 3.016148
v 0.037124 0.000000 3.009048
v 0.037851 0.000000 3.001663
v 0.037124 0.000000 2.994279
v 0.034970 0.000000 2.987178
v 0.031472 0.000000 2.980634
v 0.026765 0.000000 2.974898
v 0.021029 0.000000 2.970191
v 0.014485 0.000000 2.966693
v 0.007384 0.000000 2.964539
v 0.000000 0.000000 2.963812
v -0.007384 0.000000 2.964539
v -0.014485 0.000000 2.966693
v -0.021029 0.000000 2.970191
v -0.026765 0.000000 2.974898
v -0.031472 0.000000 2.980634
v -0.034970 0.000000 2.987178
v -0.037124 0.000000 2.994279
v -0.037851 0.000000 3.001663
v -0.037124 0.000000 3.009048
v -0.034970 0.000000 3.016148
v -0.031472 0.000000 3.022692
v -0.026765 0.000000 3.028428
v -0.021029 0.000000 3.033135
v -0.014485 0.000000 3.036633
v -0.007384 0.000000 3.038787
v 0.000000 -0.010000 3.039514
v 0.007384 -0.010000 3.038787
v 0.014485 -0.010000 3.036633
v 0.021029 -0.010000 3.033135
v 0.026765 -0.010000 3.028428
v 0.031472 -0.010000 3.022692
v 0.034970 -0.010000 3.016148
v 0.037124 -0.010000 3.009048
v 0.037851 -0.010000 3.001663
v 0.037124 -0.010000 2.994279
v 0.034970 -0.010000 2.987178
v 0.031472 -0.010000 2.980634
v 0.026765 -0.010000 2.974898
v 0.021029 -0.010000 2.970191
v 0.014485 -0.010000 2.966693
v 0.007384 -0.010000 2.964539
v 0.000000 -0.010000 2.963812
v -0.007384 -0.010000 2.964539
v -0.014485 -0.010000 2.966693
v -0.021029 -0.010000 2.970191
v -0.026765 -0.010000 2.974898
v -0.031472 -0.010000 2.980634
v -0.034970 -0.010000 2.987178
v -0.037124 -0.010000 2.994279
v -0.037851 -0.010000 3.001663
v -0.037124 -0.010000 3.009048
v -0.034970 -0.010000 3.016148
v -0.031472 -0.010000 3.022692
v -0.026765 -0.010000 3.028428
v -0.021029 -0.010000 3.033135
v -0.014485 -0.010000 3.036633
v -0.007384 -0.010000 3.038787
vn -0.0000 1.0000 -0.0000
vn -0.0000 -1.0000 -0.0000
vn 0.0980 -0.0000 0.9952
vn 0.2903 -0.0000 0.9569
vn 0.4714 -0.0000 0.8819
vn 0.6344 -0.0000 0.7730
vn 0.7730 -0.0000 0.6344
vn 0.8819 -0.0000 0.4714
vn 0.9569 -0.0000 0.2903
vn 0.9952 -0.0000 0.0980
vn 0.9952 -0.0000 -0.0980
vn 0.9569 -0.0000 -0.2903
vn 0.8819 -0.0000 -0.4714
vn 0.7730 -0.0000 -0.6344
vn 0.6344 -0.0000 -0.7730
vn 0.4714 -0.0000 -0.8819
vn 0.2903 -0.0000 -0.9569
vn 0.0980 -0.0000 -0.9952
vn -0.0980 -0.0000 -0.9952
vn -0.2903 -0.0000 -0.9569
vn -0.4714 -0.0000 -0.8819
vn -0.6344 -0.0000 -0.7730
vn -0.7730 -0.0000 -0.6344
vn -0.8819 -0.0000 -0.4714
vn -0.9569 -0.0000 -0.2903
vn -0.9952 -0.0000 -0.0980
vn -0.9952 -0.0000 0.0980
vn -0.9569 -0.0000 0.2903
vn -0.8819 -0.0000 0.4714
vn -0.7730 -0.0000 0.6344
vn -0.6344 -0.0000 0.7730
vn -0.4714 -0.0000 0.8819
vn -0.2903 -0.0000 0.9569
vn -0.0980 -0.0000 0.9952
vt 0.000000 0.000000
s 0
f 2/1/1 3/1/1 4/1/1 5/1/1 6/1/1 7/1/1 8/1/1 9/1/1 10/1/1 11/1/1 12/1/1 13/1/1 14/1/1 15/1/1 16/1/1 17/1/1 18/1/1 19/1/1 20/1/1 21/1/1 22/1/1 23/1/1 24/1/1 25/1/1 26/1/1 27/1/1 28/1/1 29/1/1 30/1/1 31/1/1 32/1/1 1/1/1
f 34/1/2 33/1/2 64/1/2 63/1/2 62/1/2 61/1/2 60/1/2 59/1/2 58/1/2 57/1/2 56/1/2 55/1/2 54/1/2 53/1/2 52/1/2 51/1/2 50/1/2 49/1/2 48/1/2 47/1/2 46/1/2 45/1/2 44/1/2 43/1/2 42/1/2 41/1/2 40/1/2 39/1/2 38/1/2 37/1/2 36/1/2 35/1/2
f 2/1/3 1/1/3 33/1/3 34/1/3
f 3/1/4 2/1/4 34/1/4 35/1/4
f 4/1/5 3/1/5 35/1/5 36/1/5
f 5/1/6 4/1/6 36/1/6 37/1/6
f 6/1/7 5/1/7 37/1/7 38/1/7
f 7/1/8 6/1/8 38/1/8 39/1/8
f 8/1/9 7/1/9 39/1/9 40/1/9
f 9/1/10 8/1/10 40/1/10 41/1/10
f 10/1/11 9/1/11 41/1/11 42/1/11
f 11/1/12 10/1/12 42/1/12 43/1/12
f 12/1/13 11/1/13 43/1/13 44/1/13
f 13/1/14 12/1/14 44/1/14 45/1/14
f 14/1/15 13/1/15 45/1/15 46/1/15
f 15/1/16 14/1/16 46/1/16 47/1/16
f 16/1/17 15/1/17 47/1/17 48/1/17
f 17/1/18 16/1/18 48/1/18 49/1/18
f 18/1/19 17/1/19 49/1/19 50/1/19
f 19/1/20 18/1/20 50/1/20 51/1/20
f 20/1/21 19/1/21 51/1/21 52/1/21
f 21/1/22 20/1/22 52/1/22 53/1/22
f 22/1/23 21/1/23 53/1/23 54/1/23
f 23/1/24 22/1/24 54/1/24 55/1/24
f 24/1/25 23/1/25 55/1/25 56/1/25
f 25/1/26 24/1/26 56/1/26 57/1/26
f 26/1/27 25/1/27 57/1/27 58/1/27
f 27/1/28 26/1/28 58/1/28 59/1/28
f 28/1/29 27/1/29 59/1/29 60/1/29
f 29/1/30 28/1/30 60/1/30 61/1/30
f 30/1/31 29/1/31 61/1/31 62/1/31
f 31/1/32 30/1/32 62/1/32 63/1/32
f 32/1/33 31/1/33 63/1/33 64/1/33
f 1/1/34 32/1/34 64/1/34 33/1/34
