# Alias OBJ Model File
# Exported from SketchUp, (c) 2000-2012 Trimble Navigation Limited
# File units = millimeters

mtllib crack.mtl

g Mesh1 Model

usemtl FrontColor
v 0 0 -0
vt 0 0
vn 4.75762e-15 -1 -6.58436e-15
v -212.591 -3.6142e-13 -98.1244
vt 8.36972 3.86317
v -293.369 -1.09588e-15 -206.071
vt 11.55 8.11301
v -373.758 1.09629e-18 -274.347
vt 14.7149 10.8011
v -265.489 -1.09588e-15 -206.071
vt 10.4523 8.11301
v -181.129 -3.6142e-13 -98.1244
vt 7.13105 3.86317
f 1/1/1 2/2/1 3/3/1 4/4/1 5/5/1 6/6/1 

vt -9.21825 -1.42291e-14
vn -0.419078 -7.97208e-15 0.90795
v -8.56371e-14 18 1.18518e-13
vt -1.10574e-15 0.708661
v -212.591 18 -98.1244
vt -9.21825 0.708661
f 2/7/2 1/1/2 7/8/2 8/9/2 

vn 0.476332 8.0556e-15 -0.879265
vt 8.11024 -1.42291e-14
v -181.129 18 -98.1244
vt 8.11024 0.708661
vt 7.41874e-16 0.708661
f 1/1/3 6/10/3 9/11/3 7/12/3 

vt 7.43497 1.10524e-14
vn 0.787928 7.80309e-15 -0.615767
vt 12.8287 2.52384e-14
v -265.489 18 -206.071
vt 12.8287 0.708661
vt 7.43497 0.708661
f 6/13/4 5/14/4 10/15/4 9/16/4 

vt 13.1687 -1.04776e-14
vn 0.533411 8.10719e-15 -0.845856
vt 18.2081 -1.04344e-14
v -373.758 18 -274.347
vt 18.2081 0.708661
vt 13.1687 0.708661
f 5/17/5 4/18/5 11/19/5 10/20/5 

vt -18.2077 1.0473e-14
vn -0.647351 -8.09839e-15 0.762192
vt -14.0553 1.04298e-14
v -293.369 18 -206.071
vt -14.0553 0.708661
vt -18.2077 0.708661
f 4/21/6 3/22/6 12/23/6 11/24/6 

vt -13.4157 3.39709e-14
vn -0.800644 -7.75411e-15 0.59914
vt -8.10766 1.97849e-14
vt -8.10766 0.708661
vt -13.4157 0.708661
f 3/25/7 2/26/7 8/27/7 12/28/7 

vt -8.36972 3.86317
vn -4.75762e-15 1 6.58436e-15
vt 3.9443e-31 -7.88861e-31
vt -7.13105 3.86317
vt -10.4523 8.11301
vt -14.7149 10.8011
vt -11.55 8.11301
f 8/29/8 7/30/8 9/31/8 10/32/8 11/33/8 12/34/8 

