# Alias OBJ Model File
# Exported from SketchUp, (c) 2000-2012 Trimble Navigation Limited
# File units = millimeters

mtllib glass shard.mtl

g Mesh1 Group1 Model

usemtl FrontColor
v -855.308 900.261 -2500.97
vt 0.0787402 -1.07172
vn 0 -0.988725 0.149742
v -855.308 903.226 -2481.39
vt 0.0787402 -0.29209
v -857.308 903.226 -2481.39
vt 0 -0.29209
v -857.308 900.261 -2500.97
vt 0 -1.07172
f 1/1/1 2/2/1 3/3/1 4/4/1 

vt 1.08394 0
vn 1 0 -0
v -855.308 937.877 -2485.64
vt 0.480275 1.48094
v -855.308 931.179 -2473.44
vt 0 1.21722
vt 0.313101 0.116743
f 1/5/2 5/6/2 6/7/2 2/8/2 

vt -0.0787402 1.1901
vn 0 0.377468 -0.926023
vt -0.0787402 -0.409152
vt 0 -0.409152
v -857.308 937.877 -2485.64
vt 0 1.1901
f 5/9/3 1/10/3 4/11/3 7/12/3 

vt -0.480275 1.48094
vn -1 0 -0
vt -1.08394 0
vt -0.313101 0.116743
v -857.308 931.179 -2473.44
f 7/13/4 4/14/4 3/15/4 8/7/4 

vt 0.0787402 0.0266055
vn 0 -0.273653 0.961828
vt 0.0787402 1.17076
vt 0 1.17076
vt 0 0.0266055
f 2/16/5 6/17/5 8/18/5 3/19/5 

vt 0.0787402 0.585867
vn 0 0.876548 0.481315
vt 0.0787402 1.13378
vt 0 1.13378
vt 0 0.585867
f 6/20/6 5/21/6 7/22/6 8/23/6 

