# Alias OBJ Model File
# Exported from SketchUp, (c) 2000-2012 Trimble Navigation Limited
# File units = millimeters

mtllib one leg.mtl

g Mesh1 Model

usemtl FrontColor
v 160.957 105.732 -7418.28
vt 6.33691 4.16267
vn 0 0 1
v 142.534 105.732 -7418.28
vt 5.61159 4.16267
v 142.534 31.4674 -7418.28
vt 5.61159 1.23887
v 143.991 31.4674 -7418.28
vt 5.66895 1.23887
v 160.957 31.4674 -7418.28
vt 6.33691 1.23887
f 1/1/1 2/2/1 3/3/1 4/4/1 5/5/1 

v 160.957 105.732 -7432.34
vt 6.33691 292.612
vn 6.12269e-16 1 8.02069e-16
v 142.534 105.732 -7432.34
vt 5.61159 292.612
vt 5.61159 292.058
vt 6.33691 292.058
f 6/6/2 7/7/2 2/8/2 1/9/2 

vt -5.61159 4.16267
vn 0 0 -1
vt -6.33691 4.16267
v 160.957 65.4946 -7432.34
vt -6.33691 2.57853
v 160.957 31.4674 -7432.34
vt -6.33691 1.23887
v 142.534 31.4674 -7432.34
vt -5.61159 1.23887
f 7/10/3 6/11/3 8/12/3 9/13/3 10/14/3 

vt 292.612 4.16267
vn 1 0 -0
vt 292.058 4.16267
vt 292.058 1.23887
v 160.957 31.4674 -7430
vt 292.52 1.23887
vt 292.612 1.23887
vt 292.612 2.57853
f 6/15/4 1/16/4 5/17/4 11/18/4 9/19/4 8/20/4 

vt -5.66895 292.058
vn 0 -1 -0
v 148.816 31.4674 -7422.27
vt -5.8589 292.216
vt -6.33691 292.52
vt -6.33691 292.058
f 4/21/5 12/22/5 11/23/5 5/24/5 

vt -5.61159 292.058
f 4/21/5 3/25/5 12/22/5

vt -6.33691 292.612
vt -5.61159 292.612
f 9/26/5 12/22/5 3/25/5 10/27/5 

f 9/26/5 11/23/5 12/22/5

vt -292.058 4.16267
vn -1 0 -0
vt -292.612 4.16267
vt -292.612 1.23887
vt -292.058 1.23887
f 2/28/6 7/29/6 10/30/6 3/31/6 

