# Alias OBJ Model File
# Exported from SketchUp, (c) 2000-2012 Trimble Navigation Limited
# File units = millimeters

mtllib poster.mtl

g Mesh1 Model

usemtl FrontColor
v -40 0 -0
vt 1.5748 0
vn 0 -1 -0
v -40 0 -1
vt 1.5748 0.0393701
v 0 0 -1
vt 0 0.0393701
v 0 0 -0
vt 0 0
f 1/1/1 2/2/1 3/3/1 4/4/1 

vt -0.0393701 0
vn -1 0 -0
v -40 77 -0
vt 0 3.0315
v -40 77 -1
vt -0.0393701 3.0315
f 2/5/2 1/4/2 5/6/2 6/7/2 

vt -1.5748 0
vn 0 0 1
v 0 77 -0
vt -1.5748 3.0315
f 1/8/3 4/4/3 7/6/3 5/9/3 

vn 1 0 -0
vt 0.0393701 0
v 0 77 -1
vt 0.0393701 3.0315
f 4/4/4 3/10/4 8/11/4 7/6/4 

vn 0 0 -1
vt 1.5748 3.0315
f 3/4/5 2/1/5 6/12/5 8/6/5 

vt -1.5748 0.0393701
vn 0 1 -0
f 6/13/6 5/8/6 7/4/6 8/3/6 

