# Blender 4.5.1 LTS
# www.blender.org
mtllib tray.mtl
o Plane.004
v 0.451364 0.545748 -3.141350
v 0.432547 0.560291 -3.177032
v 0.447055 0.545748 -4.010181
v 0.428594 0.560291 -3.974314
v -0.001308 0.545748 -3.139105
v 0.017154 0.560291 -3.174972
v -0.005616 0.545748 -4.007937
v 0.013201 0.560291 -3.972254
v 0.478922 0.590123 -3.089089
v 0.474094 0.590123 -4.062712
v -0.028346 0.590123 -3.086574
v -0.033174 0.590123 -4.060197
v 0.451073 0.590123 -3.141900
v 0.446771 0.590123 -4.009628
v -0.005326 0.590123 -4.007387
v -0.001023 0.590123 -3.139658
vn -0.0000 -1.0000 -0.0000
vn -0.0000 1.0000 -0.0000
vn -0.0032 -0.7631 -0.6463
vn 0.0032 -0.7631 0.6463
vn -0.8517 -0.5240 0.0042
vn 0.8517 -0.5240 -0.0042
vn 0.0032 0.7631 0.6463
vn -0.0032 0.7631 -0.6463
vn 0.8517 0.5240 -0.0042
vn -0.8517 0.5240 0.0042
vt 0.000000 0.000000
vt 0.000000 1.000000
vt 1.000000 1.000000
vt 1.000000 0.000000
vt 0.945618 0.945618
vt 0.054382 0.945619
vt 0.945619 0.054382
vt 0.054382 0.054382
s 0
f 1/1/1 5/2/1 7/3/1 3/4/1
f 15/5/2 12/3/2 11/2/2 16/6/2
f 11/2/2 9/1/2 10/4/2 12/3/2 15/5/2 14/7/2 13/8/2 16/6/2
f 3/4/3 7/3/3 12/3/3 10/4/3
f 5/2/4 1/1/4 9/1/4 11/2/4
f 7/3/5 5/2/5 11/2/5 12/3/5
f 1/1/6 3/4/6 10/4/6 9/1/6
f 2/1/2 4/4/2 8/3/2 6/2/2
f 15/3/7 8/3/7 4/4/7 14/4/7
f 13/1/8 2/1/8 6/2/8 16/2/8
f 6/2/9 8/3/9 15/3/9 16/2/9
f 4/4/10 2/1/10 13/1/10 14/4/10
